<svg version="1.1" id="Layer_1" xmlns="http://www.w3.org/2000/svg" xmlns:xlink="http://www.w3.org/1999/xlink" x="0px" y="0px"
	 width="100%" viewBox="0 0 1600 1600"  xml:space="preserve">
<path fill="none" opacity="1.000000" stroke="none" 
	d="
M900.000000,1601.000000 
	C600.000061,1601.000000 300.500122,1601.000000 1.000121,1601.000000 
	C1.000080,1067.666870 1.000080,534.333618 1.000040,1.000335 
	C534.333069,1.000224 1067.666138,1.000224 1600.999512,1.000112 
	C1600.999634,534.333008 1600.999634,1067.666016 1600.999756,1600.999512 
	C1367.500000,1601.000000 1134.000000,1601.000000 900.000000,1601.000000 
M967.597229,1464.098755 
	C972.316711,1461.420898 977.023193,1458.719849 981.757996,1456.069336 
	C995.821045,1448.196411 1009.913452,1440.376099 1023.960815,1432.475464 
	C1044.892822,1420.702881 1065.776001,1408.842773 1086.718750,1397.089111 
	C1101.347534,1388.878906 1116.076538,1380.847168 1130.697144,1372.622681 
	C1150.909790,1361.252808 1171.037109,1349.731079 1191.249878,1338.361328 
	C1206.016357,1330.054932 1220.903564,1321.963379 1235.661133,1313.641357 
	C1255.288452,1302.573608 1274.802246,1291.304443 1294.440186,1280.255615 
	C1309.779541,1271.625366 1325.269165,1263.262817 1340.627808,1254.666626 
	C1361.292725,1243.100586 1382.026001,1231.646851 1402.465210,1219.692627 
	C1411.372192,1214.483276 1420.231689,1208.862427 1428.040161,1202.175781 
	C1443.136841,1189.248291 1455.115234,1173.622559 1462.862427,1155.175049 
	C1468.346191,1142.116577 1472.861816,1128.493286 1472.874268,1114.258545 
	C1473.057129,905.429993 1473.000122,696.601196 1472.996460,487.772430 
	C1472.996460,486.273468 1473.119873,484.746246 1472.886475,483.279846 
	C1470.182983,466.295288 1465.569702,449.896729 1456.931763,434.902435 
	C1445.953369,415.845184 1431.355347,400.050934 1412.656860,388.395447 
	C1402.481689,382.052979 1391.774780,376.564880 1381.320679,370.668396 
	C1358.404541,357.742889 1335.505859,344.786255 1312.582275,331.873901 
	C1295.813843,322.428650 1279.008911,313.048035 1262.234863,303.612671 
	C1241.160522,291.758514 1220.115601,279.852356 1199.030518,268.017456 
	C1184.400635,259.805847 1169.697388,251.724777 1155.075684,243.498703 
	C1135.156128,232.292038 1115.303589,220.966110 1095.383667,209.759964 
	C1078.036133,200.000992 1060.602539,190.395020 1043.265747,180.617218 
	C1020.628540,167.850037 998.085022,154.916336 975.433350,142.175003 
	C957.802979,132.258087 940.080383,122.504707 922.377808,112.716644 
	C900.061340,100.377480 877.919678,87.701271 855.319092,75.905067 
	C842.410767,69.167633 828.052856,66.128349 813.586365,65.197571 
	C803.208130,64.529839 792.548950,64.630402 782.314941,66.265198 
	C770.579346,68.139839 758.418213,70.479218 747.788696,75.479561 
	C727.413696,85.064468 707.914001,96.534668 688.193115,107.478592 
	C667.773804,118.810135 647.545349,130.485275 627.190674,141.934097 
	C612.566223,150.159851 597.839539,158.203781 583.216003,166.431107 
	C562.860596,177.883224 542.582703,189.473175 522.226318,200.923630 
	C507.603760,209.148849 492.880707,217.195419 478.249817,225.406006 
	C457.740845,236.915237 437.287842,248.524246 416.787842,260.049591 
	C402.305054,268.192017 387.766296,276.234894 373.284363,284.378845 
	C352.783539,295.907593 332.318268,307.499634 311.825806,319.043335 
	C297.924774,326.874023 283.989929,334.644653 270.093903,342.484161 
	C249.751282,353.960541 229.633072,365.854340 209.043549,376.867920 
	C187.543594,388.368561 167.926117,401.896881 153.496857,421.988281 
	C138.533752,442.822998 129.109436,465.780884 129.088928,491.632843 
	C128.928375,693.961609 129.080154,896.290588 128.865891,1098.619263 
	C128.846222,1117.187500 131.037460,1135.046997 137.950150,1152.315186 
	C146.055161,1172.561768 158.513336,1189.984741 175.414062,1203.291016 
	C188.482895,1213.580444 203.519257,1221.435669 217.955490,1229.905151 
	C232.423447,1238.393311 247.260941,1246.249634 261.883972,1254.476074 
	C282.239319,1265.927368 302.524170,1277.503906 322.880615,1288.953369 
	C337.502838,1297.177368 352.223846,1305.225708 366.844574,1313.452271 
	C387.195648,1324.902832 407.470398,1336.488892 427.822906,1347.936890 
	C442.444214,1356.161011 457.172852,1364.194458 471.793030,1372.420654 
	C492.150177,1383.874634 512.425842,1395.473389 532.783997,1406.925659 
	C547.404541,1415.150146 562.131470,1423.185791 576.759949,1431.396240 
	C597.265015,1442.905029 617.709045,1454.522339 638.205383,1466.046631 
	C652.687622,1474.189209 667.204468,1482.270630 681.722107,1490.350220 
	C702.854126,1502.110718 723.805847,1514.216064 745.213013,1525.453369 
	C758.400757,1532.376099 773.032043,1535.656372 787.796814,1536.774048 
	C798.320801,1537.570801 809.160339,1537.367554 819.564636,1535.734375 
	C831.304932,1533.891724 843.465698,1531.550781 854.106750,1526.570190 
	C873.898499,1517.306641 892.776794,1506.073364 911.930969,1495.471313 
	C930.348938,1485.276733 948.634888,1474.843506 967.597229,1464.098755 
z"/>
<path fill="#007AFF" opacity="1.000000" stroke="none" 
	d="
M967.288086,1464.306885 
	C948.634888,1474.843506 930.348938,1485.276733 911.930969,1495.471313 
	C892.776794,1506.073364 873.898499,1517.306641 854.106750,1526.570190 
	C843.465698,1531.550781 831.304932,1533.891724 819.564636,1535.734375 
	C809.160339,1537.367554 798.320801,1537.570801 787.796814,1536.774048 
	C773.032043,1535.656372 758.400757,1532.376099 745.213013,1525.453369 
	C723.805847,1514.216064 702.854126,1502.110718 681.722107,1490.350220 
	C667.204468,1482.270630 652.687622,1474.189209 638.205383,1466.046631 
	C617.709045,1454.522339 597.265015,1442.905029 576.759949,1431.396240 
	C562.131470,1423.185791 547.404541,1415.150146 532.783997,1406.925659 
	C512.425842,1395.473389 492.150177,1383.874634 471.793030,1372.420654 
	C457.172852,1364.194458 442.444214,1356.161011 427.822906,1347.936890 
	C407.470398,1336.488892 387.195648,1324.902832 366.844574,1313.452271 
	C352.223846,1305.225708 337.502838,1297.177368 322.880615,1288.953369 
	C302.524170,1277.503906 282.239319,1265.927368 261.883972,1254.476074 
	C247.260941,1246.249634 232.423447,1238.393311 217.955490,1229.905151 
	C203.519257,1221.435669 188.482895,1213.580444 175.414062,1203.291016 
	C158.513336,1189.984741 146.055161,1172.561768 137.950150,1152.315186 
	C131.037460,1135.046997 128.846222,1117.187500 128.865891,1098.619263 
	C129.080154,896.290588 128.928375,693.961609 129.088928,491.632843 
	C129.109436,465.780884 138.533752,442.822998 153.496857,421.988281 
	C167.926117,401.896881 187.543594,388.368561 209.043549,376.867920 
	C229.633072,365.854340 249.751282,353.960541 270.093903,342.484161 
	C283.989929,334.644653 297.924774,326.874023 311.825806,319.043335 
	C332.318268,307.499634 352.783539,295.907593 373.284363,284.378845 
	C387.766296,276.234894 402.305054,268.192017 416.787842,260.049591 
	C437.287842,248.524246 457.740845,236.915237 478.249817,225.406006 
	C492.880707,217.195419 507.603760,209.148849 522.226318,200.923630 
	C542.582703,189.473175 562.860596,177.883224 583.216003,166.431107 
	C597.839539,158.203781 612.566223,150.159851 627.190674,141.934097 
	C647.545349,130.485275 667.773804,118.810135 688.193115,107.478592 
	C707.914001,96.534668 727.413696,85.064468 747.788696,75.479561 
	C758.418213,70.479218 770.579346,68.139839 782.314941,66.265198 
	C792.548950,64.630402 803.208130,64.529839 813.586365,65.197571 
	C828.052856,66.128349 842.410767,69.167633 855.319092,75.905067 
	C877.919678,87.701271 900.061340,100.377480 922.377808,112.716644 
	C940.080383,122.504707 957.802979,132.258087 975.433350,142.175003 
	C998.085022,154.916336 1020.628540,167.850037 1043.265747,180.617218 
	C1060.602539,190.395020 1078.036133,200.000992 1095.383667,209.759964 
	C1115.303589,220.966110 1135.156128,232.292038 1155.075684,243.498703 
	C1169.697388,251.724777 1184.400635,259.805847 1199.030518,268.017456 
	C1220.115601,279.852356 1241.160522,291.758514 1262.234863,303.612671 
	C1279.008911,313.048035 1295.813843,322.428650 1312.582275,331.873901 
	C1335.505859,344.786255 1358.404541,357.742889 1381.320679,370.668396 
	C1391.774780,376.564880 1402.481689,382.052979 1412.656860,388.395447 
	C1431.355347,400.050934 1445.953369,415.845184 1456.931763,434.902435 
	C1465.569702,449.896729 1470.182983,466.295288 1472.886475,483.279846 
	C1473.119873,484.746246 1472.996460,486.273468 1472.996460,487.772430 
	C1473.000122,696.601196 1473.057129,905.429993 1472.874268,1114.258545 
	C1472.861816,1128.493286 1468.346191,1142.116577 1462.862427,1155.175049 
	C1455.115234,1173.622559 1443.136841,1189.248291 1428.040161,1202.175781 
	C1420.231689,1208.862427 1411.372192,1214.483276 1402.465210,1219.692627 
	C1382.026001,1231.646851 1361.292725,1243.100586 1340.627808,1254.666626 
	C1325.269165,1263.262817 1309.779541,1271.625366 1294.440186,1280.255615 
	C1274.802246,1291.304443 1255.288452,1302.573608 1235.661133,1313.641357 
	C1220.903564,1321.963379 1206.016357,1330.054932 1191.249878,1338.361328 
	C1171.037109,1349.731079 1150.909790,1361.252808 1130.697144,1372.622681 
	C1116.076538,1380.847168 1101.347534,1388.878906 1086.718750,1397.089111 
	C1065.776001,1408.842773 1044.892822,1420.702881 1023.960815,1432.475464 
	C1009.913452,1440.376099 995.821045,1448.196411 981.757996,1456.069336 
	C977.023193,1458.719849 972.316711,1461.420898 967.288086,1464.306885 
M620.383728,462.897888 
	C606.702759,471.367126 592.664246,479.316132 579.418274,488.418427 
	C555.041016,505.169800 533.667236,525.368164 513.961975,547.418213 
	C499.434692,563.674133 486.436676,581.007874 474.978027,599.525940 
	C463.262726,618.458679 452.532990,637.983398 445.114807,658.970581 
	C438.022369,679.036316 431.675934,699.430603 426.297791,720.018982 
	C421.011047,740.257690 418.591858,761.130432 418.138092,782.057068 
	C417.781860,798.486389 418.238251,814.965820 419.135742,831.379150 
	C419.808594,843.684021 420.964447,856.072266 423.300446,868.153748 
	C428.349091,894.264648 435.361725,919.827087 445.614319,944.524658 
	C456.897278,971.704346 470.741180,997.312256 487.626709,1021.410339 
	C504.713654,1045.795776 524.306641,1067.875244 546.872192,1087.212891 
	C559.737305,1098.237793 572.848511,1109.121948 586.768433,1118.738525 
	C614.081238,1137.607422 643.710388,1152.197510 675.111633,1163.090698 
	C697.797302,1170.960327 720.961060,1176.731079 744.768555,1180.190674 
	C765.529785,1183.207520 786.305298,1185.186279 807.258545,1183.939697 
	C824.216064,1182.930664 841.324890,1182.476074 858.030090,1179.729126 
	C877.871826,1176.466309 897.589844,1171.840332 916.934509,1166.311157 
	C944.396606,1158.462036 970.044373,1146.102173 994.727478,1131.724609 
	C1019.175415,1117.484253 1041.627441,1100.579834 1062.157349,1081.192017 
	C1071.933350,1071.959961 1081.103638,1062.062256 1090.213257,1052.157959 
	C1095.523804,1046.383911 1100.172485,1040.000977 1105.439697,1033.495850 
	C1058.879272,1006.529236 1012.719421,979.794617 966.668701,953.123230 
	C916.606384,1006.207214 853.989563,1023.707397 810.531067,1025.123657 
	C748.695435,1027.139038 694.441772,1007.964783 649.130676,966.323242 
	C557.532654,882.143311 552.149170,741.774231 634.266724,650.494080 
	C673.596252,606.776184 723.458130,581.715820 782.067688,577.335999 
	C854.355042,571.933960 916.137573,596.399231 966.542358,648.924683 
	C1012.988647,622.015320 1059.121338,595.287659 1105.706787,568.297668 
	C1097.999634,559.153015 1091.299561,550.328125 1083.699097,542.362305 
	C1066.314209,524.141541 1048.049072,506.909302 1027.637817,491.937347 
	C998.368164,470.467590 966.798157,453.471954 932.807617,440.940186 
	C911.991516,433.265594 890.753540,426.989258 868.717468,423.841339 
	C854.407227,421.797089 840.105774,418.686157 825.736755,418.274506 
	C798.436401,417.492432 770.971924,416.504486 743.948425,422.047516 
	C725.175781,425.898102 706.334290,429.664642 687.883301,434.768982 
	C664.529358,441.229736 642.463501,451.220398 620.383728,462.897888 
M1377.000000,734.500000 
	C1377.000000,724.752319 1377.000000,715.004639 1377.000000,704.773315 
	C1355.227417,704.773315 1334.312012,704.773315 1312.899536,704.773315 
	C1312.899536,683.355469 1312.899536,662.440308 1312.899536,641.418213 
	C1291.359985,641.418213 1270.331665,641.418213 1248.798584,641.418213 
	C1248.798584,662.747009 1248.798584,683.661865 1248.798584,704.708008 
	C1227.378540,704.708008 1206.468384,704.708008 1184.874146,704.708008 
	C1184.874146,683.390259 1184.874146,662.352722 1184.874146,641.342529 
	C1163.276245,641.342529 1142.365479,641.342529 1120.949951,641.342529 
	C1120.949951,662.593201 1120.949951,683.508545 1120.949951,705.100708 
	C1099.415771,705.100708 1078.378662,705.100708 1057.329956,705.100708 
	C1057.329956,726.698364 1057.329956,747.608887 1057.329956,769.201782 
	C1078.687256,769.201782 1099.724609,769.201782 1120.619507,769.201782 
	C1120.619507,790.800537 1120.619507,811.711914 1120.619507,833.125977 
	C1099.329590,833.125977 1078.414307,833.125977 1057.430908,833.125977 
	C1057.430908,854.666077 1057.430908,875.694641 1057.430908,897.227112 
	C1078.772949,897.227112 1099.687988,897.227112 1121.100830,897.227112 
	C1121.100830,918.644714 1121.100830,939.559998 1121.100830,960.581543 
	C1142.640503,960.581543 1163.668823,960.581543 1185.201904,960.581543 
	C1185.201904,939.252563 1185.201904,918.337769 1185.201904,897.292236 
	C1206.621826,897.292236 1227.531982,897.292236 1249.126221,897.292236 
	C1249.126221,918.610107 1249.126221,939.647644 1249.126221,960.657288 
	C1270.724121,960.657288 1291.634888,960.657288 1313.050537,960.657288 
	C1313.050537,939.406433 1313.050537,918.491089 1313.050537,896.898926 
	C1334.584595,896.898926 1355.621704,896.898926 1376.669922,896.898926 
	C1376.669922,875.301270 1376.669922,854.390747 1376.669922,832.797852 
	C1355.312378,832.797852 1334.275024,832.797852 1313.380615,832.797852 
	C1313.380615,811.199036 1313.380615,790.287659 1313.380615,768.873535 
	C1334.670776,768.873535 1355.586060,768.873535 1377.000000,768.873535 
	C1377.000000,757.414917 1377.000000,746.457458 1377.000000,734.500000 
z"/>
<path fill="none" opacity="1.000000" stroke="none" 
	d="
M620.697876,462.694031 
	C642.463501,451.220398 664.529358,441.229736 687.883301,434.768982 
	C706.334290,429.664642 725.175781,425.898102 743.948425,422.047516 
	C770.971924,416.504486 798.436401,417.492432 825.736755,418.274506 
	C840.105774,418.686157 854.407227,421.797089 868.717468,423.841339 
	C890.753540,426.989258 911.991516,433.265594 932.807617,440.940186 
	C966.798157,453.471954 998.368164,470.467590 1027.637817,491.937347 
	C1048.049072,506.909302 1066.314209,524.141541 1083.699097,542.362305 
	C1091.299561,550.328125 1097.999634,559.153015 1105.706787,568.297668 
	C1059.121338,595.287659 1012.988647,622.015320 966.542358,648.924683 
	C916.137573,596.399231 854.355042,571.933960 782.067688,577.335999 
	C723.458130,581.715820 673.596252,606.776184 634.266724,650.494080 
	C552.149170,741.774231 557.532654,882.143311 649.130676,966.323242 
	C694.441772,1007.964783 748.695435,1027.139038 810.531067,1025.123657 
	C853.989563,1023.707397 916.606384,1006.207214 966.668701,953.123230 
	C1012.719421,979.794617 1058.879272,1006.529236 1105.439697,1033.495850 
	C1100.172485,1040.000977 1095.523804,1046.383911 1090.213257,1052.157959 
	C1081.103638,1062.062256 1071.933350,1071.959961 1062.157349,1081.192017 
	C1041.627441,1100.579834 1019.175415,1117.484253 994.727478,1131.724609 
	C970.044373,1146.102173 944.396606,1158.462036 916.934509,1166.311157 
	C897.589844,1171.840332 877.871826,1176.466309 858.030090,1179.729126 
	C841.324890,1182.476074 824.216064,1182.930664 807.258545,1183.939697 
	C786.305298,1185.186279 765.529785,1183.207520 744.768555,1180.190674 
	C720.961060,1176.731079 697.797302,1170.960327 675.111633,1163.090698 
	C643.710388,1152.197510 614.081238,1137.607422 586.768433,1118.738525 
	C572.848511,1109.121948 559.737305,1098.237793 546.872192,1087.212891 
	C524.306641,1067.875244 504.713654,1045.795776 487.626709,1021.410339 
	C470.741180,997.312256 456.897278,971.704346 445.614319,944.524658 
	C435.361725,919.827087 428.349091,894.264648 423.300446,868.153748 
	C420.964447,856.072266 419.808594,843.684021 419.135742,831.379150 
	C418.238251,814.965820 417.781860,798.486389 418.138092,782.057068 
	C418.591858,761.130432 421.011047,740.257690 426.297791,720.018982 
	C431.675934,699.430603 438.022369,679.036316 445.114807,658.970581 
	C452.532990,637.983398 463.262726,618.458679 474.978027,599.525940 
	C486.436676,581.007874 499.434692,563.674133 513.961975,547.418213 
	C533.667236,525.368164 555.041016,505.169800 579.418274,488.418427 
	C592.664246,479.316132 606.702759,471.367126 620.697876,462.694031 
z"/>
<path fill="none" opacity="1.000000" stroke="none" 
	d="
M1377.000000,735.000000 
	C1377.000000,746.457458 1377.000000,757.414917 1377.000000,768.873535 
	C1355.586060,768.873535 1334.670776,768.873535 1313.380615,768.873535 
	C1313.380615,790.287659 1313.380615,811.199036 1313.380615,832.797852 
	C1334.275024,832.797852 1355.312378,832.797852 1376.669922,832.797852 
	C1376.669922,854.390747 1376.669922,875.301270 1376.669922,896.898926 
	C1355.621704,896.898926 1334.584595,896.898926 1313.050537,896.898926 
	C1313.050537,918.491089 1313.050537,939.406433 1313.050537,960.657288 
	C1291.634888,960.657288 1270.724121,960.657288 1249.126221,960.657288 
	C1249.126221,939.647644 1249.126221,918.610107 1249.126221,897.292236 
	C1227.531982,897.292236 1206.621826,897.292236 1185.201904,897.292236 
	C1185.201904,918.337769 1185.201904,939.252563 1185.201904,960.581543 
	C1163.668823,960.581543 1142.640503,960.581543 1121.100830,960.581543 
	C1121.100830,939.559998 1121.100830,918.644714 1121.100830,897.227112 
	C1099.687988,897.227112 1078.772949,897.227112 1057.430908,897.227112 
	C1057.430908,875.694641 1057.430908,854.666077 1057.430908,833.125977 
	C1078.414307,833.125977 1099.329590,833.125977 1120.619507,833.125977 
	C1120.619507,811.711914 1120.619507,790.800537 1120.619507,769.201782 
	C1099.724609,769.201782 1078.687256,769.201782 1057.329956,769.201782 
	C1057.329956,747.608887 1057.329956,726.698364 1057.329956,705.100708 
	C1078.378662,705.100708 1099.415771,705.100708 1120.949951,705.100708 
	C1120.949951,683.508545 1120.949951,662.593201 1120.949951,641.342529 
	C1142.365479,641.342529 1163.276245,641.342529 1184.874146,641.342529 
	C1184.874146,662.352722 1184.874146,683.390259 1184.874146,704.708008 
	C1206.468384,704.708008 1227.378540,704.708008 1248.798584,704.708008 
	C1248.798584,683.661865 1248.798584,662.747009 1248.798584,641.418213 
	C1270.331665,641.418213 1291.359985,641.418213 1312.899536,641.418213 
	C1312.899536,662.440308 1312.899536,683.355469 1312.899536,704.773315 
	C1334.312012,704.773315 1355.227417,704.773315 1377.000000,704.773315 
	C1377.000000,715.004639 1377.000000,724.752319 1377.000000,735.000000 
M1189.692871,769.000854 
	C1188.256348,769.113464 1186.819824,769.226074 1185.456299,769.333008 
	C1185.456299,790.741760 1185.456299,811.753662 1185.456299,832.630920 
	C1206.809692,832.630920 1227.704956,832.630920 1248.716309,832.630920 
	C1248.716309,811.365479 1248.716309,790.470154 1248.716309,769.000183 
	C1229.178223,769.000183 1209.918335,769.000183 1189.692871,769.000854 
z"/>
<path fill="#007AFF" opacity="1.000000" stroke="none" 
	d="
M1190.175781,769.000488 
	C1209.918335,769.000183 1229.178223,769.000183 1248.716309,769.000183 
	C1248.716309,790.470154 1248.716309,811.365479 1248.716309,832.630920 
	C1227.704956,832.630920 1206.809692,832.630920 1185.456299,832.630920 
	C1185.456299,811.753662 1185.456299,790.741760 1185.456299,769.333008 
	C1186.819824,769.226074 1188.256348,769.113464 1190.175781,769.000488 
z"/>
</svg>